<?xml version="1.0" encoding="UTF-8"?>
<svg id="logo" xmlns="http://www.w3.org/2000/svg" viewBox="0 0 70.68 12.68">
  <path class="cls-1" d="m9.17,9.19c-.26,1.04-.8,1.89-1.63,2.53-.82.64-1.78.96-2.85.96-1.3,0-2.4-.45-3.31-1.34-.91-.89-1.37-1.99-1.37-3.29s.45-2.38,1.36-3.28c.9-.88,2-1.32,3.3-1.32,1.69,0,2.99.7,3.91,2.09.32.48.52.96.6,1.45h-2.38c-.39-1.03-1.11-1.55-2.14-1.55-.7,0-1.28.26-1.73.78-.43.5-.65,1.1-.65,1.81s.22,1.33.65,1.83c.46.54,1.04.81,1.74.81.97,0,1.68-.5,2.13-1.5h2.38Z"/>
  <path class="cls-1" d="m26.14,12.68h-3.11V3.8h2.94c.44,0,.82.02,1.15.06.38.05.73.13,1.04.25.69.25,1.27.7,1.73,1.35.55.76.82,1.68.82,2.76,0,2.98-1.53,4.46-4.58,4.46Zm1.79-6.19c-.38-.47-.92-.7-1.65-.7h-.98v4.9h.97c.74,0,1.3-.23,1.66-.68.34-.41.51-1,.51-1.76s-.17-1.33-.52-1.76Z"/>
  <path class="cls-1" d="m32.05,12.68V3.8h4.93v1.99h-2.76v1.38h2.67v1.99h-2.67v1.52h2.76v1.99h-4.93Z"/>
  <path class="cls-1" d="m53.16,7.92c0,1.36-.45,2.5-1.35,3.4-.9.91-2.03,1.36-3.39,1.36s-2.43-.45-3.34-1.34c-.92-.9-1.38-2.01-1.38-3.32s.47-2.41,1.4-3.29c.91-.86,2.03-1.28,3.35-1.28.98,0,1.9.29,2.74.86.87.59,1.44,1.35,1.71,2.28h-2.54c-.43-.77-1.08-1.15-1.96-1.15-.71,0-1.3.25-1.76.76-.45.49-.67,1.1-.67,1.82s.22,1.38.65,1.88c.46.53,1.05.79,1.79.79.51,0,.95-.12,1.32-.35.4-.25.66-.61.8-1.08h-2.65v-1.81h5.27c0,.07,0,.15.01.23v.23Z"/>
  <path class="cls-1" d="m54.33,12.68V3.8h2.27v8.88h-2.27Z"/>
  <path class="cls-1" d="m65.82,11.36c-.91.88-2.02,1.32-3.33,1.32s-2.37-.43-3.28-1.29c-.93-.88-1.39-1.94-1.39-3.21,0-.67.12-1.3.35-1.9.12-.32.31-.65.58-1,.92-1.21,2.17-1.82,3.76-1.82,1.3,0,2.41.44,3.32,1.32.91.89,1.37,1.98,1.37,3.28s-.46,2.4-1.37,3.29Zm-1.55-5.11c-.46-.53-1.05-.8-1.75-.8s-1.3.26-1.76.77c-.45.5-.67,1.1-.67,1.82s.22,1.35.67,1.85c.46.53,1.06.79,1.78.79s1.27-.27,1.73-.8c.44-.5.66-1.11.66-1.81s-.22-1.32-.66-1.83Zm-.45-4.41c-.05.07-.11.15-.18.23-.05.06-.12.13-.19.21l-.21.19c-.07.07-.13.13-.18.18-.12.14-.19.27-.2.4h-1.02c0-.18.06-.36.16-.53.04-.07.1-.14.16-.21.05-.05.11-.12.18-.19l.18-.18c.07-.07.12-.13.16-.18.1-.13.15-.26.15-.38,0-.24-.11-.36-.34-.36-.16,0-.27.06-.33.18-.04.08-.07.21-.07.39h-1.07s0-.03,0-.05v-.05c0-.43.15-.78.45-1.06.29-.27.66-.4,1.09-.4.6,0,1.02.23,1.27.7.09.18.14.36.14.54,0,.21-.05.41-.16.6Z"/>
  <path class="cls-1" d="m68.41,12.68V3.8h2.27v8.88h-2.27Z"/>
  <polygon class="cls-1" points="17.86 12.68 16.34 11.16 19.56 7.94 16.34 4.72 17.86 3.2 22.6 7.94 17.86 12.68"/>
  <polygon class="cls-1" points="14.19 12.68 9.45 7.94 14.19 3.2 15.71 4.72 12.5 7.94 15.71 11.16 14.19 12.68"/>
</svg>